<svg width="152px" height="66px" viewBox="0 0 152 66" xmlns="http://www.w3.org/2000/svg">
    <g stroke="none" stroke-width="1" fill="none" fill-rule="evenodd">
        <g transform="translate(-374.000000, -1401.000000)">
            <g transform="translate(172.000000, 918.000000)">
                <g transform="translate(203.000000, 483.000000)">
                    <g transform="translate(0.000000, 1.000000)">
                        <path d="M75,5.07300734 L39.6657869,4.93902466 L33.053296,0 L10.3314557,0 C5.55111969,11.0937658 3,19.9479054 3,32.0007052 C3,44.0535049 5.55111969,52.9076445 10.3314557,64 L33.053296,64 L39.6657869,58.7944203 L75,58.9298133" stroke="#FF5334"></path>
                        <path d="M3,35 C1.34280866,35 0,33.6574761 0,32.0006363 C0,30.3437964 1.34280866,29 3,29 C4.65719134,29 6,30.3437964 6,32.0006363 C6,33.6574761 4.65719134,35 3,35" fill="#050F41"></path>
                        <path d="M3,35 C1.34280866,35 0,33.6574761 0,32.0006363 C0,30.3437964 1.34280866,29 3,29 C4.65719134,29 6,30.3437964 6,32.0006363 C6,33.6574761 4.65719134,35 3,35 Z" stroke="#FF5334"></path>
                        <path d="M75,58.928403 L110.335631,59.0609753 L116.946704,64 L139.669962,64 C144.450298,52.9062342 147,44.0520946 147,31.9992948 C147,19.9464951 144.450298,11.0923555 139.669962,0 L116.946704,0 L110.335631,5.20557967 L75,5.07018665" stroke="#FF5334"></path>
                        <path d="M146.999364,29 C148.657476,29 150,30.3437964 150,31.9993637 C150,33.6574761 148.657476,35 146.999364,35 C145.342524,35 144,33.6574761 144,31.9993637 C144,30.3437964 145.342524,29 146.999364,29" fill="#050F41"></path>
                        <path d="M146.999364,29 C148.657476,29 150,30.3437964 150,31.9993637 C150,33.6574761 148.657476,35 146.999364,35 C145.342524,35 144,33.6574761 144,31.9993637 C144,30.3437964 145.342524,29 146.999364,29 Z"  stroke="#FF5334"></path>
                    </g>
                </g>
            </g>
        </g>
    </g>
</svg>